<mxfile host="65bd71144e">
    <diagram id="I6itVv1yt2WvM5-60r0o" name="Page-1">
        <mxGraphModel dx="619" dy="2156" grid="1" gridSize="10" guides="1" tooltips="1" connect="1" arrows="1" fold="1" page="1" pageScale="1" pageWidth="827" pageHeight="1169" math="0" shadow="0">
            <root>
                <mxCell id="0"/>
                <mxCell id="1" parent="0"/>
                <mxCell id="fFdtBvk4z19uPVVtqB_L-25" value="Users" style="swimlane;fontStyle=0;childLayout=stackLayout;horizontal=1;startSize=30;horizontalStack=0;resizeParent=1;resizeParentMax=0;resizeLast=0;collapsible=1;marginBottom=0;" parent="1" vertex="1">
                    <mxGeometry x="320" y="-800" width="140" height="270" as="geometry"/>
                </mxCell>
                <mxCell id="fFdtBvk4z19uPVVtqB_L-56" value="id" style="text;strokeColor=none;fillColor=none;align=left;verticalAlign=middle;spacingLeft=4;spacingRight=4;overflow=hidden;points=[[0,0.5],[1,0.5]];portConstraint=eastwest;rotatable=0;" parent="fFdtBvk4z19uPVVtqB_L-25" vertex="1">
                    <mxGeometry y="30" width="140" height="30" as="geometry"/>
                </mxCell>
                <mxCell id="fFdtBvk4z19uPVVtqB_L-26" value="email" style="text;strokeColor=none;fillColor=none;align=left;verticalAlign=middle;spacingLeft=4;spacingRight=4;overflow=hidden;points=[[0,0.5],[1,0.5]];portConstraint=eastwest;rotatable=0;" parent="fFdtBvk4z19uPVVtqB_L-25" vertex="1">
                    <mxGeometry y="60" width="140" height="30" as="geometry"/>
                </mxCell>
                <mxCell id="fFdtBvk4z19uPVVtqB_L-42" value="password" style="text;strokeColor=none;fillColor=none;align=left;verticalAlign=middle;spacingLeft=4;spacingRight=4;overflow=hidden;points=[[0,0.5],[1,0.5]];portConstraint=eastwest;rotatable=0;" parent="fFdtBvk4z19uPVVtqB_L-25" vertex="1">
                    <mxGeometry y="90" width="140" height="30" as="geometry"/>
                </mxCell>
                <mxCell id="fFdtBvk4z19uPVVtqB_L-27" value="name" style="text;strokeColor=none;fillColor=none;align=left;verticalAlign=middle;spacingLeft=4;spacingRight=4;overflow=hidden;points=[[0,0.5],[1,0.5]];portConstraint=eastwest;rotatable=0;" parent="fFdtBvk4z19uPVVtqB_L-25" vertex="1">
                    <mxGeometry y="120" width="140" height="30" as="geometry"/>
                </mxCell>
                <mxCell id="fFdtBvk4z19uPVVtqB_L-29" value="profile" style="text;strokeColor=none;fillColor=none;align=left;verticalAlign=middle;spacingLeft=4;spacingRight=4;overflow=hidden;points=[[0,0.5],[1,0.5]];portConstraint=eastwest;rotatable=0;" parent="fFdtBvk4z19uPVVtqB_L-25" vertex="1">
                    <mxGeometry y="150" width="140" height="30" as="geometry"/>
                </mxCell>
                <mxCell id="fFdtBvk4z19uPVVtqB_L-28" value="profile_image_id" style="text;strokeColor=none;fillColor=none;align=left;verticalAlign=middle;spacingLeft=4;spacingRight=4;overflow=hidden;points=[[0,0.5],[1,0.5]];portConstraint=eastwest;rotatable=0;" parent="fFdtBvk4z19uPVVtqB_L-25" vertex="1">
                    <mxGeometry y="180" width="140" height="30" as="geometry"/>
                </mxCell>
                <mxCell id="fFdtBvk4z19uPVVtqB_L-60" value="Followings" style="text;strokeColor=none;fillColor=none;align=left;verticalAlign=middle;spacingLeft=4;spacingRight=4;overflow=hidden;points=[[0,0.5],[1,0.5]];portConstraint=eastwest;rotatable=0;" parent="fFdtBvk4z19uPVVtqB_L-25" vertex="1">
                    <mxGeometry y="210" width="140" height="30" as="geometry"/>
                </mxCell>
                <mxCell id="fFdtBvk4z19uPVVtqB_L-61" value="Followers" style="text;strokeColor=none;fillColor=none;align=left;verticalAlign=middle;spacingLeft=4;spacingRight=4;overflow=hidden;points=[[0,0.5],[1,0.5]];portConstraint=eastwest;rotatable=0;" parent="fFdtBvk4z19uPVVtqB_L-25" vertex="1">
                    <mxGeometry y="240" width="140" height="30" as="geometry"/>
                </mxCell>
                <mxCell id="fFdtBvk4z19uPVVtqB_L-30" value="Todos" style="swimlane;fontStyle=0;childLayout=stackLayout;horizontal=1;startSize=30;horizontalStack=0;resizeParent=1;resizeParentMax=0;resizeLast=0;collapsible=1;marginBottom=0;" parent="1" vertex="1">
                    <mxGeometry x="540" y="-800" width="140" height="210" as="geometry"/>
                </mxCell>
                <mxCell id="fFdtBvk4z19uPVVtqB_L-43" value="id" style="text;strokeColor=none;fillColor=none;align=left;verticalAlign=middle;spacingLeft=4;spacingRight=4;overflow=hidden;points=[[0,0.5],[1,0.5]];portConstraint=eastwest;rotatable=0;" parent="fFdtBvk4z19uPVVtqB_L-30" vertex="1">
                    <mxGeometry y="30" width="140" height="30" as="geometry"/>
                </mxCell>
                <mxCell id="fFdtBvk4z19uPVVtqB_L-31" value="user_id" style="text;strokeColor=none;fillColor=none;align=left;verticalAlign=middle;spacingLeft=4;spacingRight=4;overflow=hidden;points=[[0,0.5],[1,0.5]];portConstraint=eastwest;rotatable=0;" parent="fFdtBvk4z19uPVVtqB_L-30" vertex="1">
                    <mxGeometry y="60" width="140" height="30" as="geometry"/>
                </mxCell>
                <mxCell id="fFdtBvk4z19uPVVtqB_L-33" value="title" style="text;strokeColor=none;fillColor=none;align=left;verticalAlign=middle;spacingLeft=4;spacingRight=4;overflow=hidden;points=[[0,0.5],[1,0.5]];portConstraint=eastwest;rotatable=0;" parent="fFdtBvk4z19uPVVtqB_L-30" vertex="1">
                    <mxGeometry y="90" width="140" height="30" as="geometry"/>
                </mxCell>
                <mxCell id="fFdtBvk4z19uPVVtqB_L-32" value="body" style="text;strokeColor=none;fillColor=none;align=left;verticalAlign=middle;spacingLeft=4;spacingRight=4;overflow=hidden;points=[[0,0.5],[1,0.5]];portConstraint=eastwest;rotatable=0;" parent="fFdtBvk4z19uPVVtqB_L-30" vertex="1">
                    <mxGeometry y="120" width="140" height="30" as="geometry"/>
                </mxCell>
                <mxCell id="fFdtBvk4z19uPVVtqB_L-34" value="complete" style="text;strokeColor=none;fillColor=none;align=left;verticalAlign=middle;spacingLeft=4;spacingRight=4;overflow=hidden;points=[[0,0.5],[1,0.5]];portConstraint=eastwest;rotatable=0;" parent="fFdtBvk4z19uPVVtqB_L-30" vertex="1">
                    <mxGeometry y="150" width="140" height="30" as="geometry"/>
                </mxCell>
                <mxCell id="fFdtBvk4z19uPVVtqB_L-35" value="release" style="text;strokeColor=none;fillColor=none;align=left;verticalAlign=middle;spacingLeft=4;spacingRight=4;overflow=hidden;points=[[0,0.5],[1,0.5]];portConstraint=eastwest;rotatable=0;" parent="fFdtBvk4z19uPVVtqB_L-30" vertex="1">
                    <mxGeometry y="180" width="140" height="30" as="geometry"/>
                </mxCell>
                <mxCell id="fFdtBvk4z19uPVVtqB_L-36" value="Relationships" style="swimlane;fontStyle=0;childLayout=stackLayout;horizontal=1;startSize=30;horizontalStack=0;resizeParent=1;resizeParentMax=0;resizeLast=0;collapsible=1;marginBottom=0;" parent="1" vertex="1">
                    <mxGeometry x="320" y="-420" width="140" height="120" as="geometry"/>
                </mxCell>
                <mxCell id="fFdtBvk4z19uPVVtqB_L-37" value="id" style="text;strokeColor=none;fillColor=none;align=left;verticalAlign=middle;spacingLeft=4;spacingRight=4;overflow=hidden;points=[[0,0.5],[1,0.5]];portConstraint=eastwest;rotatable=0;" parent="fFdtBvk4z19uPVVtqB_L-36" vertex="1">
                    <mxGeometry y="30" width="140" height="30" as="geometry"/>
                </mxCell>
                <mxCell id="fFdtBvk4z19uPVVtqB_L-38" value="following_id" style="text;strokeColor=none;fillColor=none;align=left;verticalAlign=middle;spacingLeft=4;spacingRight=4;overflow=hidden;points=[[0,0.5],[1,0.5]];portConstraint=eastwest;rotatable=0;" parent="fFdtBvk4z19uPVVtqB_L-36" vertex="1">
                    <mxGeometry y="60" width="140" height="30" as="geometry"/>
                </mxCell>
                <mxCell id="fFdtBvk4z19uPVVtqB_L-39" value="follower_id" style="text;strokeColor=none;fillColor=none;align=left;verticalAlign=middle;spacingLeft=4;spacingRight=4;overflow=hidden;points=[[0,0.5],[1,0.5]];portConstraint=eastwest;rotatable=0;" parent="fFdtBvk4z19uPVVtqB_L-36" vertex="1">
                    <mxGeometry y="90" width="140" height="30" as="geometry"/>
                </mxCell>
                <mxCell id="fFdtBvk4z19uPVVtqB_L-44" value="Followings" style="swimlane;fontStyle=0;childLayout=stackLayout;horizontal=1;startSize=30;horizontalStack=0;resizeParent=1;resizeParentMax=0;resizeLast=0;collapsible=1;marginBottom=0;" parent="1" vertex="1">
                    <mxGeometry x="40" y="-520" width="140" height="90" as="geometry"/>
                </mxCell>
                <mxCell id="fFdtBvk4z19uPVVtqB_L-45" value="id" style="text;strokeColor=none;fillColor=none;align=left;verticalAlign=middle;spacingLeft=4;spacingRight=4;overflow=hidden;points=[[0,0.5],[1,0.5]];portConstraint=eastwest;rotatable=0;" parent="fFdtBvk4z19uPVVtqB_L-44" vertex="1">
                    <mxGeometry y="30" width="140" height="30" as="geometry"/>
                </mxCell>
                <mxCell id="fFdtBvk4z19uPVVtqB_L-47" value="name" style="text;strokeColor=none;fillColor=none;align=left;verticalAlign=middle;spacingLeft=4;spacingRight=4;overflow=hidden;points=[[0,0.5],[1,0.5]];portConstraint=eastwest;rotatable=0;" parent="fFdtBvk4z19uPVVtqB_L-44" vertex="1">
                    <mxGeometry y="60" width="140" height="30" as="geometry"/>
                </mxCell>
                <mxCell id="fFdtBvk4z19uPVVtqB_L-50" value="Followers" style="swimlane;fontStyle=0;childLayout=stackLayout;horizontal=1;startSize=30;horizontalStack=0;resizeParent=1;resizeParentMax=0;resizeLast=0;collapsible=1;marginBottom=0;" parent="1" vertex="1">
                    <mxGeometry x="600" y="-520" width="140" height="90" as="geometry"/>
                </mxCell>
                <mxCell id="fFdtBvk4z19uPVVtqB_L-51" value="id" style="text;strokeColor=none;fillColor=none;align=left;verticalAlign=middle;spacingLeft=4;spacingRight=4;overflow=hidden;points=[[0,0.5],[1,0.5]];portConstraint=eastwest;rotatable=0;" parent="fFdtBvk4z19uPVVtqB_L-50" vertex="1">
                    <mxGeometry y="30" width="140" height="30" as="geometry"/>
                </mxCell>
                <mxCell id="fFdtBvk4z19uPVVtqB_L-53" value="name" style="text;strokeColor=none;fillColor=none;align=left;verticalAlign=middle;spacingLeft=4;spacingRight=4;overflow=hidden;points=[[0,0.5],[1,0.5]];portConstraint=eastwest;rotatable=0;" parent="fFdtBvk4z19uPVVtqB_L-50" vertex="1">
                    <mxGeometry y="60" width="140" height="30" as="geometry"/>
                </mxCell>
                <mxCell id="fFdtBvk4z19uPVVtqB_L-57" style="edgeStyle=orthogonalEdgeStyle;rounded=0;orthogonalLoop=1;jettySize=auto;html=1;entryX=0;entryY=0.5;entryDx=0;entryDy=0;" parent="1" source="fFdtBvk4z19uPVVtqB_L-56" target="fFdtBvk4z19uPVVtqB_L-31" edge="1">
                    <mxGeometry relative="1" as="geometry"/>
                </mxCell>
                <mxCell id="fFdtBvk4z19uPVVtqB_L-58" style="edgeStyle=orthogonalEdgeStyle;rounded=0;orthogonalLoop=1;jettySize=auto;html=1;exitX=1;exitY=0.5;exitDx=0;exitDy=0;entryX=0;entryY=0.5;entryDx=0;entryDy=0;" parent="1" source="fFdtBvk4z19uPVVtqB_L-45" target="fFdtBvk4z19uPVVtqB_L-38" edge="1">
                    <mxGeometry relative="1" as="geometry">
                        <Array as="points">
                            <mxPoint x="180" y="-480"/>
                            <mxPoint x="240" y="-480"/>
                            <mxPoint x="240" y="-345"/>
                        </Array>
                    </mxGeometry>
                </mxCell>
                <mxCell id="fFdtBvk4z19uPVVtqB_L-59" style="edgeStyle=orthogonalEdgeStyle;rounded=0;orthogonalLoop=1;jettySize=auto;html=1;entryX=1;entryY=0.5;entryDx=0;entryDy=0;" parent="1" source="fFdtBvk4z19uPVVtqB_L-51" target="fFdtBvk4z19uPVVtqB_L-39" edge="1">
                    <mxGeometry relative="1" as="geometry">
                        <mxPoint x="317" y="-351" as="targetPoint"/>
                        <Array as="points">
                            <mxPoint x="560" y="-475"/>
                            <mxPoint x="560" y="-315"/>
                        </Array>
                    </mxGeometry>
                </mxCell>
                <mxCell id="fFdtBvk4z19uPVVtqB_L-62" style="edgeStyle=orthogonalEdgeStyle;rounded=0;orthogonalLoop=1;jettySize=auto;html=1;entryX=0.214;entryY=0;entryDx=0;entryDy=0;entryPerimeter=0;" parent="1" source="fFdtBvk4z19uPVVtqB_L-60" target="fFdtBvk4z19uPVVtqB_L-44" edge="1">
                    <mxGeometry relative="1" as="geometry">
                        <mxPoint x="300" y="-450" as="targetPoint"/>
                    </mxGeometry>
                </mxCell>
                <mxCell id="fFdtBvk4z19uPVVtqB_L-63" style="edgeStyle=orthogonalEdgeStyle;rounded=0;orthogonalLoop=1;jettySize=auto;html=1;entryX=0.5;entryY=0;entryDx=0;entryDy=0;" parent="1" source="fFdtBvk4z19uPVVtqB_L-61" target="fFdtBvk4z19uPVVtqB_L-50" edge="1">
                    <mxGeometry relative="1" as="geometry"/>
                </mxCell>
            </root>
        </mxGraphModel>
    </diagram>
</mxfile>